<?xml version="1.0" encoding="UTF-8" standalone="no"?>
<!-- Created with Inkscape (http://www.inkscape.org/) -->

<svg
   width="17in"
   height="8.000001in"
   viewBox="0 0 431.80003 203.20002"
   version="1.1"
   id="svg1"
   xml:space="preserve"
   inkscape:version="1.3 (0e150ed6c4, 2023-07-21)"
   sodipodi:docname="Wonky Bar.svg"
   xmlns:inkscape="http://www.inkscape.org/namespaces/inkscape"
   xmlns:sodipodi="http://sodipodi.sourceforge.net/DTD/sodipodi-0.dtd"
   xmlns:xlink="http://www.w3.org/1999/xlink"
   xmlns="http://www.w3.org/2000/svg"
   xmlns:svg="http://www.w3.org/2000/svg"><sodipodi:namedview
     id="namedview1"
     pagecolor="#505050"
     bordercolor="#eeeeee"
     borderopacity="1"
     inkscape:showpageshadow="0"
     inkscape:pageopacity="0"
     inkscape:pagecheckerboard="0"
     inkscape:deskcolor="#505050"
     inkscape:document-units="mm"
     showguides="true"
     inkscape:zoom="0.35355339"
     inkscape:cx="575.58492"
     inkscape:cy="414.36457"
     inkscape:window-width="1920"
     inkscape:window-height="1017"
     inkscape:window-x="1912"
     inkscape:window-y="-8"
     inkscape:window-maximized="1"
     inkscape:current-layer="layer-MC0"><inkscape:page
       x="0"
       y="0"
       width="431.80002"
       height="203.20001"
       id="page1"
       margin="0"
       bleed="0"
       inkscape:export-filename="Wonky Bar.pdf"
       inkscape:export-xdpi="800"
       inkscape:export-ydpi="800" /></sodipodi:namedview><defs
     id="defs1"><linearGradient
       id="linearGradient34"
       inkscape:collect="always"><stop
         style="stop-color:#6e07fb;stop-opacity:1;"
         offset="0"
         id="stop35" /><stop
         style="stop-color:#6e07fb;stop-opacity:0.52941179;"
         offset="1"
         id="stop36" /></linearGradient><clipPath
       clipPathUnits="userSpaceOnUse"
       id="clipPath4"><path
         d="M 0,792 H 612 V 0 H 0 Z"
         transform="translate(-205.05861,-456.02201)"
         id="path4" /></clipPath><clipPath
       clipPathUnits="userSpaceOnUse"
       id="clipPath6"><path
         d="M 0,792 H 612 V 0 H 0 Z"
         transform="translate(-200.53221,-447.38131)"
         id="path6" /></clipPath><clipPath
       clipPathUnits="userSpaceOnUse"
       id="clipPath8"><path
         d="M 0,792 H 612 V 0 H 0 Z"
         transform="translate(-284.0566,-432.15771)"
         id="path8" /></clipPath><clipPath
       clipPathUnits="userSpaceOnUse"
       id="clipPath10"><path
         d="M 0,792 H 612 V 0 H 0 Z"
         transform="translate(-300.10351,-425.78031)"
         id="path10" /></clipPath><clipPath
       clipPathUnits="userSpaceOnUse"
       id="clipPath12"><path
         d="M 0,792 H 612 V 0 H 0 Z"
         transform="translate(-326.64161,-499.43021)"
         id="path12" /></clipPath><clipPath
       clipPathUnits="userSpaceOnUse"
       id="clipPath14"><path
         d="M 0,792 H 612 V 0 H 0 Z"
         transform="translate(-361.20411,-466.72021)"
         id="path14" /></clipPath><clipPath
       clipPathUnits="userSpaceOnUse"
       id="clipPath16"><path
         d="M 0,792 H 612 V 0 H 0 Z"
         transform="translate(-323.55661,-404.38531)"
         id="path16" /></clipPath><clipPath
       clipPathUnits="userSpaceOnUse"
       id="clipPath18"><path
         d="M 0,792 H 612 V 0 H 0 Z"
         transform="translate(-340.57031,-421.68261)"
         id="path18" /></clipPath><clipPath
       clipPathUnits="userSpaceOnUse"
       id="clipPath20"><path
         d="M 0,792 H 612 V 0 H 0 Z"
         transform="translate(-366.14161,-429.89501)"
         id="path20" /></clipPath><clipPath
       clipPathUnits="userSpaceOnUse"
       id="clipPath22"><path
         d="M 0,792 H 612 V 0 H 0 Z"
         transform="translate(-224.3311,-473.46001)"
         id="path22" /></clipPath><clipPath
       clipPathUnits="userSpaceOnUse"
       id="clipPath4-2"><path
         d="M 0,792 H 612 V 0 H 0 Z"
         transform="translate(-205.05861,-456.02201)"
         id="path4-5" /></clipPath><clipPath
       clipPathUnits="userSpaceOnUse"
       id="clipPath6-5"><path
         d="M 0,792 H 612 V 0 H 0 Z"
         transform="translate(-200.53221,-447.38131)"
         id="path6-4" /></clipPath><clipPath
       clipPathUnits="userSpaceOnUse"
       id="clipPath8-8"><path
         d="M 0,792 H 612 V 0 H 0 Z"
         transform="translate(-284.0566,-432.15771)"
         id="path8-9" /></clipPath><clipPath
       clipPathUnits="userSpaceOnUse"
       id="clipPath10-8"><path
         d="M 0,792 H 612 V 0 H 0 Z"
         transform="translate(-300.10351,-425.78031)"
         id="path10-9" /></clipPath><clipPath
       clipPathUnits="userSpaceOnUse"
       id="clipPath12-4"><path
         d="M 0,792 H 612 V 0 H 0 Z"
         transform="translate(-326.64161,-499.43021)"
         id="path12-2" /></clipPath><clipPath
       clipPathUnits="userSpaceOnUse"
       id="clipPath14-2"><path
         d="M 0,792 H 612 V 0 H 0 Z"
         transform="translate(-361.20411,-466.72021)"
         id="path14-7" /></clipPath><clipPath
       clipPathUnits="userSpaceOnUse"
       id="clipPath16-4"><path
         d="M 0,792 H 612 V 0 H 0 Z"
         transform="translate(-323.55661,-404.38531)"
         id="path16-0" /></clipPath><clipPath
       clipPathUnits="userSpaceOnUse"
       id="clipPath18-5"><path
         d="M 0,792 H 612 V 0 H 0 Z"
         transform="translate(-340.57031,-421.68261)"
         id="path18-1" /></clipPath><clipPath
       clipPathUnits="userSpaceOnUse"
       id="clipPath20-5"><path
         d="M 0,792 H 612 V 0 H 0 Z"
         transform="translate(-366.14161,-429.89501)"
         id="path20-6" /></clipPath><clipPath
       clipPathUnits="userSpaceOnUse"
       id="clipPath22-8"><path
         d="M 0,792 H 612 V 0 H 0 Z"
         transform="translate(-224.3311,-473.46001)"
         id="path22-1" /></clipPath><radialGradient
       inkscape:collect="always"
       xlink:href="#linearGradient34"
       id="radialGradient36"
       cx="-1481.9873"
       cy="488.41785"
       fx="-1481.9873"
       fy="488.41785"
       r="79.807907"
       gradientTransform="matrix(-1.3110969,0.31125395,-0.32533261,-1.370401,-3227.4427,1577.7339)"
       gradientUnits="userSpaceOnUse" /></defs><g
     id="layer-MC0"
     inkscape:groupmode="layer"
     inkscape:label="Layer 1"
     transform="matrix(0.26458333,0,0,0.26458334,-41.582444,-87.854547)"><path
       id="path1"
       d="M 1786.8713,1097.758 H 159.4527 V 334.33938 h 1627.4186 z"
       style="fill:#ee2d45;fill-opacity:1;fill-rule:nonzero;stroke:#ef5a58;stroke-width:4.58141;stroke-linecap:butt;stroke-linejoin:miter;stroke-miterlimit:10;stroke-dasharray:none;stroke-opacity:1" /><path
       id="path2"
       d="M 1693.1619,965.20029 H 253.16193 V 468.27044 H 1693.1619 Z"
       style="fill:#3e1f1c;fill-opacity:1;fill-rule:nonzero;stroke:none;stroke-width:4.05375" /><path
       id="path5"
       d="m 0,0 c 0,0 12.344,1.44 18.516,4.115 1.439,-7.818 8.845,-26.332 15.428,-38.059 -0.205,11.52 -0.205,20.983 -9.051,39.91 3.292,1.646 10.492,5.143 10.492,5.143 0,0 8.023,-25.509 20.572,-36.619 -7.817,17.693 -18.103,42.791 -9.052,60.895 9.052,18.103 18.516,19.133 25.922,17.487 5.515,-1.226 10.903,-10.493 4.32,-17.487 -7.388,-7.85 -14.607,-0.823 -11.109,3.086 2.469,1.851 5.966,0.617 4.938,-3.292 1.851,-1.645 6.342,4.593 1.233,7.612 -4.525,2.674 -12.343,-4.32 -13.988,-8.846 -1.646,-4.527 -12.961,-24.687 9.669,-67.273 -2.469,-4.319 -8.024,-6.789 -11.727,-7.2 0,0 -12.138,19.132 -15.635,23.659 1.235,-15.43 4.937,-28.596 4.937,-28.596 0,0 -9.874,-3.909 -15.84,-3.291 C 27.155,-41.145 20.367,-9.257 0,0"
       style="fill:#ffffff;fill-opacity:1;fill-rule:nonzero;stroke:none"
       transform="matrix(4.3063175,0,0,-3.9438877,477.0307,735.60959)"
       clip-path="url(#clipPath6)" /><path
       id="path7"
       d="m 0,0 c -9.259,-4.471 -16.664,33.533 -10.492,35.179 3.212,0.857 6.378,-5.554 8.846,-10.08 0,0 -6.995,3.702 -4.731,-5.966 2.313,-9.883 7.2,-2.881 7.2,-1.235 C 0.823,19.544 5.966,2.88 0,0 m 8.229,20.779 c -5.965,23.246 -17.978,25.115 -22.835,23.246 -5.35,-2.057 -9.052,-13.989 -4.526,-33.121 4.526,-19.133 17.486,-25.511 22.218,-23.042 4.731,2.469 11.222,9.234 5.143,32.917"
       style="fill:#ffffff;fill-opacity:1;fill-rule:nonzero;stroke:none"
       transform="matrix(4.3063175,0,0,-3.9438877,836.71327,795.64975)"
       clip-path="url(#clipPath8)" /><path
       id="path9"
       d="m 0,0 c 0,0 6.995,27.568 -16.047,54.106 5.555,3.085 12.344,7.2 13.784,8.229 0,0 7.407,-17.075 25.305,-29.625 -3.292,17.281 -10.493,27.362 -16.459,33.74 5.966,3.085 16.459,5.965 16.459,5.965 0,-10.903 -1.235,-24.892 16.663,-54.929 -9.258,-2.879 -15.842,-3.908 -15.842,-3.908 0,0 -6.993,15.43 -21.806,26.744 C 3.497,27.979 16.253,9.875 16.253,9.875 Z"
       style="fill:#ffffff;fill-opacity:1;fill-rule:nonzero;stroke:none"
       transform="matrix(4.3063175,0,0,-3.9438877,905.81634,820.8015)"
       clip-path="url(#clipPath10)" /><path
       id="path11"
       d="m 0,0 c 0,0 10.904,3.085 17.487,3.497 -0.206,-3.086 -2.056,-11.521 0.617,-25.51 5.349,5.555 5.76,11.726 5.555,26.745 2.058,0.617 16.664,0.205 16.664,0.205 0,0 -11.109,-11.521 -11.932,-27.773 3.297,-6.026 12.505,-23.427 26.95,-24.275 3.498,-0.206 4.937,2.263 4.937,4.32 0,1.44 0,3.703 -2.674,4.32 1.235,-2.262 0.823,-5.349 -3.085,-5.555 -3.91,-0.205 -5.145,5.967 -0.619,7.818 4.527,1.852 8.435,-1.234 9.67,-3.292 1.234,-2.057 1.53,-12.395 -8.846,-14.811 -15.018,-3.498 -29.007,15.635 -35.796,29.418 1.234,-10.286 5.553,-20.572 15.84,-29.213 -9.874,-0.411 -18.927,-1.645 -18.927,-1.645 0,0 -1.235,31.887 -15.841,55.751"
       style="fill:#ffffff;fill-opacity:1;fill-rule:nonzero;stroke:none"
       transform="matrix(4.3063175,0,0,-3.9438877,1020.0978,530.33458)"
       clip-path="url(#clipPath12)" /><path
       id="path13"
       d="m 0,0 c 0,0 6.584,-0.618 8.846,11.932 2.263,12.549 2.675,20.367 1.44,25.304 10.286,-0.822 22.836,0.206 22.836,0.206 0,0 -4.115,-11.315 -1.44,-23.659 2.675,-12.343 6.238,-16.037 13.783,-15.017 7.612,1.028 8.564,7.854 7.612,13.372 -1.028,5.966 -8.229,8.434 -10.08,2.674 2.88,0.206 4.32,-1.234 4.114,-3.703 -0.189,-2.264 -2.467,-2.88 -3.908,-2.88 -1.44,0 -5.966,2.057 -3.909,8.229 2.058,6.171 8.64,5.76 9.874,5.76 1.235,0 14.195,-2.263 11.521,-20.778 -2.674,-18.515 -18.31,-15.841 -18.31,-15.841 0,0 -12.961,0.823 -17.899,20.984 -1.85,-3.086 -7.2,-3.909 -6.993,3.497 0.205,7.407 5.76,3.909 5.76,3.909 0,0 -1.851,10.287 -1.234,17.487 h -3.086 c 0,0 0,-25.099 -9.052,-32.916 0,0 -4.731,-2.264 -9.052,0 C -3.497,0.823 0,0 0,0"
       style="display:none;fill:#ffffff;fill-opacity:1;fill-rule:nonzero;stroke:none"
       transform="matrix(4.3063175,0,0,-3.9438877,1204.935,609.33913)"
       clip-path="url(#clipPath14)" /><path
       id="path15"
       d="m 0,0 c 0,0 -3.291,-2.675 -7.406,6.995 0,0 5.456,4.181 8.64,-1.029 C 3.498,2.263 0,0 0,0 m -10.904,18.31 c 3.909,2.263 9.258,-4.114 1.852,-9.052 0,0 -5.761,6.789 -1.852,9.052 m 9.526,-5.926 c 7.803,9.271 -2.635,12.867 -6.89,10.993 -3.931,-1.731 -12.305,-8.359 -12.305,-8.359 10.287,-9.67 11.315,-18.31 13.784,-22.219 22.424,9.67 14.227,21.966 5.411,19.585"
       style="fill:#e9e165;fill-opacity:1;fill-rule:nonzero;stroke:none"
       transform="matrix(4.3063175,0,0,-3.9438877,1006.8129,905.18099)"
       clip-path="url(#clipPath16)" /><path
       id="path17"
       d="m 0,0 c -1.368,-0.253 -2.533,-1.468 -2.533,-1.468 0,0 -0.812,9.879 -0.305,10.487 0.507,0.607 1.775,0.709 2.128,0.658 0.355,-0.05 3.547,-9.981 3.547,-9.981 0,0 -1.429,0.565 -2.837,0.304 m -10.134,10.234 c 4.905,-8.537 4.104,-23.001 0.862,-27.662 0,0 5.983,1.308 9.069,1.925 -0.823,2.263 -1.216,6.485 -1.52,9.677 4.054,-3.851 5.827,1.317 5.827,1.317 L 7.468,-13.8 c 0,0 3.627,0.729 7.817,1.235 C 8.702,-4.542 5.41,5.95 5.41,13.767 -0.557,13.974 -6.225,12.497 -10.134,10.234"
       style="fill:#e9e165;fill-opacity:1;fill-rule:nonzero;stroke:none"
       transform="matrix(4.3063175,0,0,-3.9438877,1080.0793,836.96237)"
       clip-path="url(#clipPath18)" /><path
       id="path19"
       d="m 0,0 c -0.206,-1.029 -1.851,-3.292 -5.143,-2.88 0,0 -2.057,7.2 2.262,7.2 C 0.418,4.32 0.207,1.028 0,0 m 11.727,0 c -3.91,-2.264 -3.289,-8.67 0.823,-8.229 3.929,0.422 2.865,5.336 0.332,5.336 1.851,2.263 5.634,0.836 5.634,-3.073 0,-3.909 -3.086,-7.406 -7.407,-7.612 -4.32,-0.205 -8.845,3.497 -10.697,8.229 0,0 6.789,0.824 6.377,6.377 -0.54,7.285 -13.166,6.173 -20.778,5.761 6.789,-10.492 5.143,-27.362 5.143,-27.362 2.881,0.617 8.64,0.823 8.64,0.823 -4.114,8.23 -4.525,13.784 -4.525,13.784 h 2.056 c 4.321,-13.989 12.55,-14.607 16.047,-14.607 5.35,0 11.316,4.321 11.316,10.698 0,10.7 -9.053,12.139 -12.961,9.875"
       style="fill:#e9e165;fill-opacity:1;fill-rule:nonzero;stroke:none"
       transform="matrix(4.3063175,0,0,-3.9438877,1190.1974,804.5736)"
       clip-path="url(#clipPath20)" /><path
       id="text1"
       style="font-size:369.683px;line-height:1;font-family:WillyWonka;-inkscape-font-specification:WillyWonka;text-align:center;letter-spacing:0px;text-anchor:middle;fill:#ffffff;stroke:#ffffff;stroke-width:0;stroke-linejoin:round;paint-order:stroke fill markers"
       d="m 1271.4608,509.26352 c -110.3024,3.89855 -90.6691,147.97399 -0.7246,132.80859 19.8864,-3.06148 40.5368,-31.55362 18.0801,-56.72265 -25.2028,-28.24937 -52.0538,-5.76285 -40.1504,8.26757 8.5393,6.80832 21.2186,3.31154 18.1387,-10.21875 6.8612,-5.23139 21.9492,24.24923 1.2519,26.94141 -16.9545,2.20535 -53.0955,-14.9402 -41.3125,-38.79297 3.329,-6.52683 9.1498,-14.22842 19.2071,-20.96484 42.1304,-28.21936 128.8049,61.18148 49.4726,193.16015 l 84.4024,2.39844 c -39.4781,-93.26618 4.4716,-144.24755 62.0586,-222.93554 l -56.0645,-5.75391 c -7.2498,34.43494 -23.5952,64.99167 -32.5156,84.0918 -10.447,-54.94964 -38.4837,-93.81181 -81.8438,-92.2793 z"
       sodipodi:nodetypes="sccccssscccccs" /></g><g
     id="layer-MC0-2"
     inkscape:groupmode="layer"
     inkscape:label="Layer 1"
     transform="matrix(0.26458335,0,0,0.2645833,441.8,1.0336431e-6)"><path
       id="path3"
       d="m 0,0 c -1.952,0.043 0,5.76 0,5.76 0,0 12.96,-3.086 18.926,-0.205 5.967,2.88 7.817,6.171 10.287,12.137 2.057,-1.234 3.908,-1.645 4.731,-4.937 C 27.155,5.555 18.515,-0.412 0,0"
       style="display:inline;fill:#e9e165;fill-opacity:1;fill-rule:nonzero;stroke:none"
       transform="matrix(5.5005229,0,0,-4.16595,-1360.9827,371.93801)"
       clip-path="url(#clipPath4-2)" /><path
       style="display:none;fill:url(#radialGradient36);stroke-width:1.05635"
       d="m -1451.8511,335.57595 c 23.5995,-0.51143 43.8418,5.00188 63.7186,17.35449 16.8562,10.47562 30.5268,25.42052 40.8323,44.63916 4.2788,7.97926 5.4534,11.36496 8.7263,25.15106 4.2145,17.75302 4.632,28.28011 1.8091,45.61836 -5.8529,35.94889 -32.3454,69.84879 -65.2464,83.48938 -11.9661,4.96099 -33.8624,8.88273 -45.9474,8.22917 -32.3364,-1.74868 -60.0412,-15.51338 -79.3308,-39.41427 -10.2395,-12.68732 -13.9738,-20.56612 -18.238,-38.4778 -3.2893,-13.79922 -3.6057,-16.4288 -3.0604,-25.10043 3.2635,-51.90439 44.5513,-90.12236 91.5888,-84.77923 28.9803,3.29193 53.8145,22.6318 61.8743,48.18513 8.0798,25.61656 -0.8968,53.49197 -21.8139,67.74045 -22.1066,15.05872 -51.9135,10.02646 -64.2536,-10.84793 -6.0593,-10.24972 -7.0827,-20.78562 -2.9783,-30.66298 5.1495,-12.39253 20.6515,-22.15324 32.9392,-20.74002 8.3179,0.95672 16.3998,8.87269 16.3828,16.04648 -0.01,4.22742 -1.2571,9.01499 -3.1469,12.08112 l -1.6033,2.60143 2.2436,-1.29023 c 7.1351,-4.10313 12.0956,-16.95823 9.981,-25.86556 -2.8219,-11.88635 -14.833,-22.57969 -28.5407,-25.40912 -8.569,-1.76892 -22.6931,0.73892 -31.1905,5.53797 -14.435,8.15239 -24.699,21.98099 -28.1793,37.96612 -6.0236,27.66436 5.6984,53.44855 31.5134,69.31939 9.0383,5.55664 12.7262,7.10442 21.7768,9.13944 15.623,3.51287 23.6127,3.26258 39.5954,-1.24025 10.1971,-2.87287 14.3992,-4.56724 19.5782,-7.8944 15.4328,-9.91489 26.474,-22.27537 33.6943,-37.72046 17.6532,-37.76183 8.528,-81.84619 -22.9991,-111.10917 -21.2728,-19.74512 -51.8922,-30.37831 -80.8796,-28.08696 l -8.5687,0.67729 10.2708,-2.46966 c 6.1768,-1.48485 13.9305,-2.54865 19.4519,-2.66831 z"
       id="path33-1" /><path
       id="path21"
       d="M 0,0 -0.509,1.178 3.69,2.99 C 3.453,3.425 3.212,3.878 2.967,4.357 L -1.119,2.593 -1.628,3.771 2.39,5.505 C 2.169,5.952 1.945,6.419 1.721,6.895 L -2.238,5.186 -2.747,6.363 1.181,8.059 C 0.971,8.518 0.761,8.986 0.549,9.464 L -3.358,7.778 -3.866,8.955 0.035,10.64 c -0.201,0.466 -0.402,0.939 -0.603,1.419 l -3.91,-1.688 -0.507,1.177 3.926,1.695 c -0.193,0.473 -0.386,0.949 -0.578,1.43 l -3.96,-1.709 -0.508,1.177 3.997,1.725 c -0.187,0.477 -0.372,0.957 -0.556,1.439 l -4.052,-1.749 -0.509,1.178 4.109,1.773 c -0.18,0.482 -0.359,0.965 -0.534,1.448 l -4.185,-1.806 -0.509,1.177 4.259,1.839 c -0.173,0.486 -0.344,0.972 -0.511,1.458 l -4.358,-1.881 -0.509,1.177 4.45,1.921 c -0.165,0.492 -0.328,0.981 -0.487,1.469 l -4.573,-1.975 -0.509,1.178 4.686,2.023 c -0.158,0.497 -0.312,0.99 -0.461,1.48 l -4.836,-2.088 -0.508,1.177 4.972,2.146 c -0.15,0.503 -0.294,1.002 -0.432,1.493 l -5.152,-2.224 -0.507,1.178 5.315,2.294 c -0.139,0.514 -0.267,1.016 -0.391,1.511 l -5.535,-2.39 -0.509,1.177 5.738,2.478 c -0.135,0.581 -0.262,1.151 -0.373,1.695 -9.464,-2.469 -17.487,-5.555 -23.247,-10.492 8.845,-11.315 17.898,-34.151 17.898,-34.151 9.463,1.852 17.075,6.584 19.544,8.024 -0.406,0.56 -0.841,1.241 -1.298,2.023 z"
       style="fill:#e9e165;fill-opacity:1;fill-rule:nonzero;stroke:none"
       transform="matrix(5.5005229,0,0,-4.16595,-1254.9739,299.29216)"
       clip-path="url(#clipPath22-8)" /></g></svg>
